<?xml version="1.0" encoding="UTF-8"?>
<!DOCTYPE svg PUBLIC "-//W3C//DTD SVG 1.1//EN" "http://www.w3.org/Graphics/SVG/1.1/DTD/svg11.dtd">
<svg xmlns="http://www.w3.org/2000/svg" version="1.1" width="38px" height="38px" style="shape-rendering:geometricPrecision; text-rendering:geometricPrecision; image-rendering:optimizeQuality; fill-rule:evenodd; clip-rule:evenodd" xmlns:xlink="http://www.w3.org/1999/xlink">
<g><path style="opacity:0.813" fill="#fefffe" d="M 5.5,-0.5 C 14.1667,-0.5 22.8333,-0.5 31.5,-0.5C 33.8333,1.16667 35.8333,3.16667 37.5,5.5C 37.5,14.1667 37.5,22.8333 37.5,31.5C 35.8333,33.8333 33.8333,35.8333 31.5,37.5C 22.8333,37.5 14.1667,37.5 5.5,37.5C 3.16667,35.8333 1.16667,33.8333 -0.5,31.5C -0.5,22.8333 -0.5,14.1667 -0.5,5.5C 1.16667,3.16667 3.16667,1.16667 5.5,-0.5 Z M 30.5,5.5 C 27.2714,5.16473 25.7714,6.49807 26,9.5C 29.5137,12.1584 31.347,11.1584 31.5,6.5C 32.2216,6.91753 32.7216,7.5842 33,8.5C 33.9278,15.9402 33.5945,23.2735 32,30.5C 31.0975,31.7014 29.9308,32.5348 28.5,33C 21.0598,33.9278 13.7265,33.5945 6.5,32C 5.29857,31.0975 4.46524,29.9308 4,28.5C 3.07222,21.0598 3.40555,13.7265 5,6.5C 5.90252,5.29857 7.06919,4.46524 8.5,4C 15.1667,3.33333 21.8333,3.33333 28.5,4C 29.4158,4.27842 30.0825,4.77842 30.5,5.5 Z M 17.5,12.5 C 26.1999,15.8797 26.5333,19.8797 18.5,24.5C 11.0224,20.9314 10.6891,16.9314 17.5,12.5 Z"/></g>
<g><path style="opacity:0.601" fill="#fefffe" d="M 30.5,5.5 C 30.5,6.16667 30.8333,6.5 31.5,6.5C 31.347,11.1584 29.5137,12.1584 26,9.5C 25.7714,6.49807 27.2714,5.16473 30.5,5.5 Z"/></g>
<g><path style="opacity:0.753" fill="#fefffe" d="M 14.5,8.5 C 24.9884,7.48736 29.4884,12.154 28,22.5C 25.0812,28.0248 20.5812,29.8581 14.5,28C 8.97524,25.0812 7.14191,20.5812 9,14.5C 10.3597,11.9774 12.193,9.97739 14.5,8.5 Z M 17.5,12.5 C 10.6891,16.9314 11.0224,20.9314 18.5,24.5C 26.5333,19.8797 26.1999,15.8797 17.5,12.5 Z"/></g>
</svg>
