<?xml version="1.0" encoding="UTF-8"?>
<!DOCTYPE svg PUBLIC "-//W3C//DTD SVG 1.1//EN" "http://www.w3.org/Graphics/SVG/1.1/DTD/svg11.dtd">
<svg xmlns="http://www.w3.org/2000/svg" version="1.1" width="45px" height="38px" style="shape-rendering:geometricPrecision; text-rendering:geometricPrecision; image-rendering:optimizeQuality; fill-rule:evenodd; clip-rule:evenodd" xmlns:xlink="http://www.w3.org/1999/xlink">
<g><path style="opacity:0.891" fill="#fefffe" d="M 37.5,-0.5 C 39.8333,-0.5 42.1667,-0.5 44.5,-0.5C 44.5,3.16667 44.5,6.83333 44.5,10.5C 42.7439,19.3565 41.0772,28.3565 39.5,37.5C 37.5,37.5 35.5,37.5 33.5,37.5C 30.0113,34.863 26.3447,32.363 22.5,30C 20.8783,28.7049 19.545,27.2049 18.5,25.5C 21.5776,20.9156 25.2443,16.7489 29.5,13C 23.3154,16.4331 16.9821,19.9331 10.5,23.5C 6.87766,22.2919 3.211,21.2919 -0.5,20.5C -0.5,19.1667 -0.5,17.8333 -0.5,16.5C 12.2389,10.8168 24.9056,5.15015 37.5,-0.5 Z"/></g>
</svg>
