<svg width="43" height="43" viewBox="0 0 43 43" fill="none" xmlns="http://www.w3.org/2000/svg">
<rect width="43" height="43" fill="white"/>
<path d="M23.0276 12C24.1526 12.003 24.7236 12.009 25.2166 12.023L25.4106 12.03C25.6346 12.038 25.8556 12.048 26.1226 12.06C27.1866 12.11 27.9126 12.278 28.5496 12.525C29.2096 12.779 29.7656 13.123 30.3216 13.678C30.8303 14.1777 31.2238 14.7825 31.4746 15.45C31.7216 16.087 31.8896 16.813 31.9396 17.878C31.9516 18.144 31.9616 18.365 31.9696 18.59L31.9756 18.784C31.9906 19.276 31.9966 19.847 31.9986 20.972L31.9996 21.718V23.028C32.002 23.7574 31.9944 24.4868 31.9766 25.216L31.9706 25.41C31.9626 25.635 31.9526 25.856 31.9406 26.122C31.8906 27.187 31.7206 27.912 31.4746 28.55C31.2238 29.2175 30.8303 29.8223 30.3216 30.322C29.8219 30.8307 29.2171 31.2242 28.5496 31.475C27.9126 31.722 27.1866 31.89 26.1226 31.94L25.4106 31.97L25.2166 31.976C24.7236 31.99 24.1526 31.997 23.0276 31.999L22.2816 32H20.9726C20.2429 32.0026 19.5131 31.9949 18.7836 31.977L18.5896 31.971C18.3522 31.962 18.1149 31.9517 17.8776 31.94C16.8136 31.89 16.0876 31.722 15.4496 31.475C14.7824 31.2241 14.178 30.8306 13.6786 30.322C13.1695 29.8224 12.7757 29.2176 12.5246 28.55C12.2776 27.913 12.1096 27.187 12.0596 26.122L12.0296 25.41L12.0246 25.216C12.0062 24.4868 11.9978 23.7574 11.9996 23.028V20.972C11.9968 20.2426 12.0042 19.5132 12.0216 18.784L12.0286 18.59C12.0366 18.365 12.0466 18.144 12.0586 17.878C12.1086 16.813 12.2766 16.088 12.5236 15.45C12.7753 14.7822 13.1698 14.1774 13.6796 13.678C14.1787 13.1695 14.7828 12.7761 15.4496 12.525C16.0876 12.278 16.8126 12.11 17.8776 12.06C18.1436 12.048 18.3656 12.038 18.5896 12.03L18.7836 12.024C19.5128 12.0062 20.2422 11.9986 20.9716 12.001L23.0276 12ZM21.9996 17C20.6735 17 19.4017 17.5268 18.4641 18.4645C17.5264 19.4021 16.9996 20.6739 16.9996 22C16.9996 23.3261 17.5264 24.5979 18.4641 25.5355C19.4017 26.4732 20.6735 27 21.9996 27C23.3257 27 24.5974 26.4732 25.5351 25.5355C26.4728 24.5979 26.9996 23.3261 26.9996 22C26.9996 20.6739 26.4728 19.4021 25.5351 18.4645C24.5974 17.5268 23.3257 17 21.9996 17ZM21.9996 19C22.3936 18.9999 22.7837 19.0775 23.1477 19.2282C23.5117 19.3789 23.8424 19.5998 24.1211 19.8783C24.3997 20.1569 24.6207 20.4875 24.7715 20.8515C24.9224 21.2154 25 21.6055 25.0001 21.9995C25.0002 22.3935 24.9226 22.7836 24.7719 23.1476C24.6212 23.5116 24.4003 23.8423 24.1218 24.121C23.8432 24.3996 23.5126 24.6206 23.1486 24.7714C22.7847 24.9223 22.3946 24.9999 22.0006 25C21.2049 25 20.4419 24.6839 19.8793 24.1213C19.3167 23.5587 19.0006 22.7956 19.0006 22C19.0006 21.2044 19.3167 20.4413 19.8793 19.8787C20.4419 19.3161 21.2049 19 22.0006 19M27.2506 15.5C26.9191 15.5 26.6011 15.6317 26.3667 15.8661C26.1323 16.1005 26.0006 16.4185 26.0006 16.75C26.0006 17.0815 26.1323 17.3995 26.3667 17.6339C26.6011 17.8683 26.9191 18 27.2506 18C27.5821 18 27.9001 17.8683 28.1345 17.6339C28.3689 17.3995 28.5006 17.0815 28.5006 16.75C28.5006 16.4185 28.3689 16.1005 28.1345 15.8661C27.9001 15.6317 27.5821 15.5 27.2506 15.5Z" fill="black"/>
</svg>
