<svg width="100%" height="100%" viewBox="0 0 96 50" fill="none" xmlns="http://www.w3.org/2000/svg">
<path d="M12.195 32.355C15.885 32.265 18 31.5 18.045 27.405C18.045 22.5 11.745 22.725 11.745 22.725H5.13V32.355H5.22C5.94 32.355 9.99 32.4 12.195 32.355ZM10.98 8.145H5.13V17.73H5.22C5.94 17.775 9.09 17.73 11.25 17.73C14.76 17.775 17.145 16.245 17.01 12.735C16.83 7.92 10.98 8.145 10.98 8.145ZM21.015 12.51C21.015 12.51 21.42 20.79 15.075 19.935C15.075 19.935 22.23 19.845 22.365 27.585C22.455 33.705 18.99 35.82 15.075 36H1.125V4.5H11.34C11.34 4.5 20.745 4.14 21.015 12.51ZM29.3024 4.5H40.9574V4.545H42.2624L47.6174 36H43.2074L41.2274 24.525H29.7074L27.7274 36H23.3174L28.7174 4.545H29.3024V4.5ZM32.4074 8.415L30.4274 20.25H40.5074L38.5724 8.415H32.4074ZM48.8057 4.5H69.2357V11.835L52.9907 31.095V32.085H69.1007V36H48.8057V29.52L65.5907 9.585V8.415H48.8057V4.5ZM76.4557 4.5H88.1107V4.545H89.4157L94.7707 36H90.3607L88.3807 24.525H76.8607L74.8807 36H70.4707L75.8707 4.545H76.4557V4.5ZM79.5607 8.415L77.5807 20.25H87.6607L85.7257 8.415H79.5607Z" fill="white"/>
</svg>
