<?xml version="1.0" encoding="utf-8"?>
<!-- Generator: Adobe Illustrator 27.2.0, SVG Export Plug-In . SVG Version: 6.00 Build 0)  -->
<svg version="1.1" id="Слой_1" xmlns="http://www.w3.org/2000/svg" xmlns:xlink="http://www.w3.org/1999/xlink" x="0px" y="0px"
	 viewBox="0 0 1920 1280" style="enable-background:new 0 0 1920 1280;" xml:space="preserve">
<g>
	<path d="M311.83,605.67c0,0,132.8-1.67,135.3,141.99c1.67,113.59-62.64,152.84-135.3,156.19H52.92V319.19h189.59
		c0,0,174.56-6.68,179.57,148.67C422.08,467.86,429.6,621.54,311.83,605.67z M127.25,386.84v177.9h1.67c13.36,0.84,71.83,0,111.92,0
		c65.15,0.84,109.41-27.56,106.91-92.71c-3.34-89.37-111.92-85.19-111.92-85.19H127.25z M366.95,744.32
		c0-91.04-116.93-86.86-116.93-86.86H127.25v178.74h1.67c13.36,0,88.53,0.83,129.46,0C326.86,834.52,366.12,820.32,366.95,744.32z"
		/>
	<path d="M817.13,319.19v0.83h24.22l99.39,583.82h-81.85l-36.75-212.98H608.33l-36.75,212.98h-81.85l100.23-583.82h10.86v-0.83
		H817.13z M621.69,611.52h187.09l-35.91-219.66H658.44L621.69,611.52z"/>
	<path d="M1367.54,319.19v136.14L1066.02,812.8v18.37h299.01v72.66H988.35V783.57l311.53-370v-21.71H988.35v-72.66H1367.54z"/>
	<path d="M1743.39,319.19v0.83h24.22L1867,903.84h-81.85l-36.75-212.98h-213.81l-36.75,212.98h-81.85l100.22-583.82h10.86v-0.83
		H1743.39z M1547.95,611.52h187.09l-35.91-219.66H1584.7L1547.95,611.52z"/>
</g>
</svg>
