<svg width="100%" height="100%" viewBox="0 0 88 47" fill="none" xmlns="http://www.w3.org/2000/svg">
<path d="M78.068 46.5898H74.9453L78.9088 7.93211H83.4727L87.5563 46.5898H84.2534L83.1725 35.0873H79.149L78.068 46.5898ZM79.3892 32.5378H82.9323L81.3108 15.1063H81.0706L79.3892 32.5378Z" fill="#EFEFEF"/>
<path d="M50.4912 44.1588L57.8776 11.0745H51.5721V7.93211H61.3606V10.363L53.9142 43.4473H61.9011V46.5898H50.4912V44.1588Z" fill="#EFEFEF"/>
<path d="M28.0133 46.5898H24.8906L28.8541 7.93211H33.418L37.5016 46.5898H34.1987L33.1178 35.0873H29.0943L28.0133 46.5898ZM29.3345 32.5378H32.8776L31.2562 15.1063H31.0159L29.3345 32.5378Z" fill="#EFEFEF"/>
<path d="M11.4773 41.3129C11.4773 44.8308 9.79587 46.5898 6.43295 46.5898H0.427734V7.93211H6.43295C9.79587 7.93211 11.4773 9.80966 11.4773 13.5647V22.5177C11.4773 25.0079 10.3764 26.253 8.17446 26.253V26.8459C10.3764 27.004 11.4773 28.2294 11.4773 30.5219V41.3129ZM6.43295 25.245C7.51389 25.245 8.05436 24.2569 8.05436 22.2805V10.7781H3.67055V25.245H6.43295ZM8.05436 43.7438V30.7591C8.05436 28.7827 7.51389 27.7946 6.43295 27.7946H3.67055V43.7438H8.05436Z" fill="#EFEFEF"/>
<rect x="27.709" y="0.430664" width="6.97308" height="2.76335" fill="#EFEFEF"/>
</svg>
