<svg width="100%" height="100%" viewBox="0 0 121 53" fill="none" xmlns="http://www.w3.org/2000/svg">
<rect width="100%" height="100%" fill="white"/>
<g clip-path="url(#clip0_332_202)">
<path d="M35.0922 23.7408C35.0048 25.6524 33.6701 28.2703 31.0882 31.5928C28.4189 35.0635 26.1605 36.7989 24.3129 36.799C23.169 36.799 22.2 35.7423 21.4093 33.6284L19.8246 27.8156C19.237 25.7026 18.6073 24.645 17.9332 24.645C17.7866 24.645 17.2724 24.9543 16.3925 25.5701L15.4688 24.3796C16.4374 23.528 17.3934 22.6762 18.3342 21.8236C19.6262 20.7065 20.5963 20.1191 21.243 20.0598C22.771 19.913 23.7115 20.9578 24.0643 23.1942C24.4458 25.6073 24.7097 27.1082 24.8581 27.6956C25.2986 29.6976 25.7829 30.6975 26.3125 30.6975C26.7234 30.6975 27.3405 30.0481 28.1638 28.7495C28.9858 27.4511 29.4264 26.4626 29.4857 25.7839C29.6028 24.663 29.1623 24.1013 28.1638 24.1013C27.6935 24.1013 27.2089 24.2095 26.7106 24.4233C27.6755 21.2618 29.519 19.7261 32.24 19.8137C34.2575 19.873 35.2083 21.182 35.0922 23.7406" fill="#111111"/>
<path d="M43.375 14.2561C43.3458 14.9877 42.9782 15.6898 42.2723 16.3623C41.4787 17.1224 40.5382 17.5024 39.4509 17.5024C37.7762 17.5024 36.967 16.7721 37.0263 15.3098C37.0546 14.5498 37.5029 13.8178 38.3701 13.1159C39.2371 12.415 40.1995 12.0632 41.2585 12.0632C41.8757 12.0632 42.3895 12.3055 42.8017 12.7874C43.2126 13.2703 43.4037 13.7599 43.375 14.2561ZM47.2103 29.9333C46.3876 31.4897 45.2561 32.8992 43.8157 34.1618C41.8459 35.8649 39.8775 36.7165 37.9089 36.7165C36.9968 36.7165 36.2986 36.4228 35.8142 35.8353C35.3296 35.2477 35.1016 34.4853 35.1313 33.5445C35.1596 32.5759 35.4611 31.0774 36.0343 29.0509C36.6078 27.0242 36.8947 25.9374 36.895 25.7903C36.895 25.0275 36.6296 24.645 36.1012 24.645C35.9249 24.645 35.425 24.9543 34.6018 25.5701L33.5879 24.3796C34.5283 23.5281 35.4688 22.6761 36.4092 21.8236C37.673 20.7065 38.6136 20.1191 39.232 20.0598C40.2007 19.9723 40.9132 20.2569 41.3693 20.9167C41.8241 21.5761 41.9928 22.4316 41.8767 23.4855C41.4942 25.2723 41.0819 27.5411 40.6413 30.2928C40.6118 31.5528 41.0678 32.1814 42.0084 32.1814C42.4192 32.1814 43.1535 31.7476 44.2124 30.8766C45.0936 30.1523 45.8138 29.4708 46.373 28.8319L47.2103 29.9333Z" fill="#111111"/>
<path d="M74.7399 29.9333C73.9169 31.4897 72.7853 32.8992 71.3452 34.1617C69.3755 35.8649 67.4065 36.7165 65.4383 36.7165C63.5264 36.7165 62.6015 35.66 62.6606 33.5445C62.6887 32.604 62.8732 31.4743 63.2108 30.1524C63.5484 28.8305 63.7327 27.8024 63.7622 27.0684C63.7918 25.9524 63.4527 25.3935 62.7443 25.3935C61.9779 25.3935 61.0644 26.3056 60.0028 28.1271C58.8819 30.0377 58.2763 31.8892 58.1889 33.681C58.1297 34.9463 58.2534 35.9165 58.5599 36.5915C56.509 36.6507 55.0723 36.312 54.2531 35.5776C53.5186 34.9309 53.1823 33.859 53.2416 32.3595C53.2699 31.4188 53.4142 30.4783 53.6743 29.5379C53.9334 28.5976 54.0778 27.7598 54.1074 27.0245C54.1667 25.9372 53.7686 25.3935 52.9156 25.3935C52.1788 25.3935 51.3839 26.2321 50.5308 27.9069C49.6782 29.5818 49.2067 31.3313 49.1191 33.1529C49.0598 34.7995 49.1654 35.9448 49.4347 36.5915C47.4172 36.6506 45.9846 36.2254 45.1369 35.3159C44.4334 34.5547 44.1128 33.3978 44.1719 31.8441C44.2004 31.0827 44.3343 30.0197 44.5764 28.6565C44.8186 27.2935 44.9539 26.2322 44.9822 25.4696C45.04 24.9423 44.9078 24.6785 44.5855 24.6784C44.409 24.6785 43.9091 24.9757 43.0858 25.5699L42.0283 24.3796C42.1749 24.2637 43.0999 23.4109 44.8058 21.8236C46.04 20.6783 46.8773 20.0908 47.3179 20.0611C48.0819 20.0018 48.6991 20.3174 49.1693 21.008C49.6394 21.6984 49.8754 22.5 49.8754 23.4107C49.8751 23.7046 49.8459 23.9837 49.7877 24.2482C50.2282 23.5731 50.7424 22.9841 51.3309 22.4844C52.6825 21.3096 54.1964 20.6473 55.8711 20.5004C57.3114 20.3833 58.3396 20.7208 58.958 21.5145C59.4564 22.1614 59.6912 23.0872 59.6627 24.292C59.8847 24.1024 60.1054 23.9113 60.3248 23.7186C61.0001 22.9254 61.661 22.2937 62.3076 21.8236C63.3949 21.0298 64.5275 20.5893 65.7023 20.5004C67.113 20.3831 68.1269 20.7198 68.744 21.5104C69.2722 22.1545 69.5079 23.0772 69.45 24.2765C69.4203 25.097 69.2219 26.2904 68.8549 27.8567C68.4863 29.4232 68.3035 30.3225 68.3035 30.557C68.2738 31.1727 68.3332 31.5967 68.4798 31.8312C68.6269 32.0656 68.9785 32.1813 69.5378 32.1813C69.9486 32.1813 70.683 31.7476 71.7419 30.8766C72.6231 30.1523 73.3433 29.4707 73.9023 28.8319L74.7399 29.9333Z" fill="#111111"/>
<path d="M81.264 25.2852C81.2923 24.4969 80.9703 24.1014 80.2953 24.1014C79.4141 24.1014 78.52 24.7081 77.6104 25.9216C76.7009 27.1352 76.2306 28.2974 76.2022 29.4079C76.1856 29.4081 76.1856 29.5983 76.2022 29.9785C77.6399 29.4528 78.8871 28.6489 79.9435 27.5669C80.7939 26.6316 81.2342 25.87 81.264 25.2852ZM91.2715 29.8885C90.4189 31.2975 88.7437 32.706 86.246 34.114C83.1307 35.9048 79.9706 36.799 76.7679 36.799C74.387 36.799 72.6815 36.0052 71.6533 34.4193C70.9186 33.3323 70.566 32.0393 70.5955 30.5403C70.6241 28.1608 71.683 25.8987 73.7698 23.7521C76.0619 21.4024 78.766 20.226 81.8811 20.226C84.7619 20.226 86.2897 21.3997 86.4663 23.7444C86.5832 25.239 85.7604 26.7781 83.9979 28.3619C82.1154 30.0918 79.7492 31.1911 76.8993 31.6597C77.4275 32.3927 78.221 32.7591 79.28 32.7588C81.3955 32.7588 83.7029 32.2215 86.2019 31.1443C87.9941 30.3884 89.4049 29.6023 90.4341 28.7881L91.2715 29.8885Z" fill="#111111"/>
<path d="M98.2581 26.7667C98.2878 25.9719 98.177 25.2426 97.9272 24.5802C97.6769 23.9183 97.3165 23.5858 96.8475 23.5858C95.3479 23.586 94.1137 24.3959 93.1449 26.0156C92.3205 27.3415 91.8795 28.7548 91.8218 30.2555C91.7924 30.9925 91.9247 31.6405 92.2185 32.1994C92.5405 32.8475 92.9966 33.1708 93.5853 33.1708C94.9072 33.1708 96.0398 32.3914 96.9802 30.8299C97.7736 29.5341 98.199 28.1802 98.2581 26.7667ZM103.24 26.9329C103.122 29.6332 102.123 31.9661 100.242 33.9319C98.3615 35.8981 96.0242 36.8812 93.2325 36.8812C90.9111 36.8812 89.1472 36.1325 87.9426 34.6354C87.0614 33.5211 86.5758 32.1271 86.4882 30.4549C86.3401 27.9312 87.2508 25.612 89.2218 23.4993C91.3375 21.1521 93.9964 19.9784 97.2003 19.9784C99.2568 19.9784 100.814 20.669 101.873 22.0474C102.873 23.31 103.328 24.9386 103.24 26.9329Z" fill="#111111"/>
</g>
<defs>
<clipPath id="clip0_332_202">
<rect width="87.7817" height="25.0315" fill="white" transform="translate(15.4688 12)"/>
</clipPath>
</defs>
</svg>
