<svg width="100%" height="100%" viewBox="0 0 43 43" fill="none" xmlns="http://www.w3.org/2000/svg">
<rect width="43" height="43" fill="white"/>
<path d="M31.504 28.381H29.222C28.359 28.381 28.099 27.682 26.552 26.134C25.2 24.831 24.629 24.669 24.287 24.669C23.814 24.669 23.685 24.799 23.685 25.45V27.502C23.685 28.057 23.505 28.382 22.055 28.382C20.6483 28.2875 19.2842 27.8602 18.075 27.1352C16.8658 26.4102 15.8461 25.4083 15.1 24.212C13.329 22.0066 12.0964 19.4189 11.5 16.654C11.5 16.312 11.63 16.002 12.282 16.002H14.562C15.148 16.002 15.359 16.263 15.589 16.866C16.696 20.124 18.585 22.958 19.352 22.958C19.646 22.958 19.774 22.828 19.774 22.095V18.739C19.677 17.208 18.864 17.079 18.864 16.525C18.8743 16.3788 18.9411 16.2425 19.0504 16.1448C19.1596 16.0471 19.3026 15.9959 19.449 16.002H23.033C23.523 16.002 23.685 16.246 23.685 16.832V21.362C23.685 21.851 23.895 22.013 24.043 22.013C24.337 22.013 24.563 21.851 25.102 21.313C26.2569 19.9037 27.2008 18.3339 27.904 16.653C27.9756 16.451 28.1116 16.278 28.2909 16.1606C28.4703 16.0432 28.6832 15.9878 28.897 16.003H31.178C31.862 16.003 32.007 16.345 31.862 16.833C31.0321 18.6913 30.0056 20.4554 28.8 22.095C28.554 22.47 28.456 22.665 28.8 23.105C29.026 23.447 29.826 24.115 30.363 24.75C31.145 25.53 31.794 26.432 32.285 27.42C32.481 28.056 32.155 28.381 31.504 28.381Z" fill="black"/>
</svg>
